# Blender v3.0.0 OBJ File: 'studio-2.0.blend'
# www.blender.org
o Light_above_Plane.002
v -2.885340 6.453207 1.824965
v 2.885340 6.453207 1.824965
v -2.885340 6.453207 -2.886355
v 2.885340 6.453207 -2.886355
v -1.775348 6.940745 0.732855
v 1.775348 6.940745 0.732855
v -1.775348 6.940745 -1.794244
v 1.775348 6.940745 -1.794244
v -2.815322 6.453207 -2.816336
v -2.815322 6.453207 1.754946
v 2.815322 6.453207 1.754946
v 2.815322 6.453207 -2.816336
vn 0.0000 -1.0000 0.0000
vn 0.0000 1.0000 0.0000
vn 0.0000 0.9131 -0.4076
vn 0.4021 0.9156 0.0000
vn 0.0000 0.9131 0.4076
vn -0.4021 0.9156 0.0000
s off
f 9//1 11//1 10//1
f 9//1 12//1 11//1
f 6//2 7//2 5//2
f 4//3 7//3 8//3
f 4//4 6//4 2//4
f 1//5 6//5 5//5
f 1//6 7//6 3//6
f 10//1 3//1 9//1
f 11//1 1//1 10//1
f 12//1 2//1 11//1
f 9//1 4//1 12//1
f 6//2 8//2 7//2
f 4//3 3//3 7//3
f 4//4 8//4 6//4
f 1//5 2//5 6//5
f 1//6 5//6 7//6
f 10//1 1//1 3//1
f 11//1 2//1 1//1
f 12//1 4//1 2//1
f 9//1 3//1 4//1
