# Blender v3.0.0 OBJ File: 'Warm Studio.blend'
# www.blender.org
o Light_Array_Plane.003
v -1.246140 5.243710 -1.679474
v -2.246140 5.243710 -1.679474
v -1.246140 6.071799 -1.118879
v -2.246140 6.071799 -1.118879
v -0.081140 5.243710 -1.679474
v -1.081140 5.243710 -1.679474
v -0.081140 6.071799 -1.118879
v -1.081140 6.071799 -1.118879
v 1.083859 5.243710 -1.679474
v 0.083860 5.243710 -1.679474
v 1.083859 6.071799 -1.118879
v 0.083860 6.071799 -1.118879
v 2.248859 5.243710 -1.679474
v 1.248859 5.243710 -1.679474
v 2.248859 6.071799 -1.118879
v 1.248859 6.071799 -1.118879
v -1.246140 4.127118 -2.435379
v -2.246140 4.127118 -2.435379
v -1.246140 4.955208 -1.874783
v -2.246140 4.955208 -1.874783
v -0.081141 4.127118 -2.435379
v -1.081141 4.127118 -2.435379
v -0.081141 4.955208 -1.874783
v -1.081141 4.955208 -1.874783
v 1.083859 4.127118 -2.435379
v 0.083859 4.127118 -2.435379
v 1.083859 4.955208 -1.874783
v 0.083859 4.955208 -1.874783
v 2.248859 4.127118 -2.435379
v 1.248859 4.127118 -2.435379
v 2.248859 4.955208 -1.874783
v 1.248859 4.955208 -1.874783
v -1.246140 2.944413 -3.236041
v -2.246140 2.944413 -3.236041
v -1.246140 3.772502 -2.675445
v -2.246140 3.772502 -2.675445
v -0.081141 2.944413 -3.236041
v -1.081141 2.944413 -3.236041
v -0.081141 3.772502 -2.675445
v -1.081141 3.772502 -2.675445
v 1.083859 2.944413 -3.236041
v 0.083859 2.944413 -3.236041
v 1.083859 3.772502 -2.675445
v 0.083859 3.772502 -2.675445
v 2.248859 2.944413 -3.236041
v 1.248859 2.944413 -3.236041
v 2.248859 3.772502 -2.675445
v 1.248859 3.772502 -2.675445
v -1.246140 1.857205 -3.972053
v -2.246140 1.857205 -3.972053
v -1.246140 2.685295 -3.411457
v -2.246140 2.685295 -3.411457
v -0.081141 1.857205 -3.972053
v -1.081141 1.857205 -3.972053
v -0.081141 2.685295 -3.411457
v -1.081141 2.685295 -3.411457
v 1.083859 1.857205 -3.972053
v 0.083859 1.857205 -3.972053
v 1.083859 2.685295 -3.411457
v 0.083859 2.685295 -3.411457
v 2.248859 1.857205 -3.972053
v 1.248859 1.857205 -3.972053
v 2.248859 2.685295 -3.411457
v 1.248859 2.685295 -3.411457
vn 0.0000 -0.5606 0.8281
s off
f 1//1 4//1 2//1
f 5//1 8//1 6//1
f 9//1 12//1 10//1
f 13//1 16//1 14//1
f 17//1 20//1 18//1
f 21//1 24//1 22//1
f 25//1 28//1 26//1
f 29//1 32//1 30//1
f 33//1 36//1 34//1
f 37//1 40//1 38//1
f 41//1 44//1 42//1
f 45//1 48//1 46//1
f 49//1 52//1 50//1
f 53//1 56//1 54//1
f 57//1 60//1 58//1
f 61//1 64//1 62//1
f 1//1 3//1 4//1
f 5//1 7//1 8//1
f 9//1 11//1 12//1
f 13//1 15//1 16//1
f 17//1 19//1 20//1
f 21//1 23//1 24//1
f 25//1 27//1 28//1
f 29//1 31//1 32//1
f 33//1 35//1 36//1
f 37//1 39//1 40//1
f 41//1 43//1 44//1
f 45//1 47//1 48//1
f 49//1 51//1 52//1
f 53//1 55//1 56//1
f 57//1 59//1 60//1
f 61//1 63//1 64//1
